# xmcd CD database file
# Copyright (C) 1995-1998 Ti Kan
#
# Track frame offsets:
#	182
#	7902
#	14785
#	22747
#	32690
#	48192
#	71872
#	80365
#	98055
#	105210
#	120687
#	137790
#	149735
#	158240
#	170097
#	183765
#	187710
#	205052
#	212327
#	220342
#	224485
#	228312
#	231347
#	236917
#	242905
#	249622
#	253940
#	268765
#	271612
#	281900
#	289915
#	293665
#	296787
#	322340
#
# Disc length: 4418 seconds
#
# Revision: 1
# Processed by: cddbd v1.4b41PL1 Copyright (c) Steve Scherf et al.
# Submitted via: CDex 1.30
#
DISCID=0b114022
DTITLE=Bob Brozman - Bottleneck Blues Guitar
DYEAR=1996
DGENRE=Blues
TTITLE0=01: Introduction
TTITLE1=02: Tuning
TTITLE2=03: Exs. 2a - 2f: Turnarounds
TTITLE3=04: Exs. 2g - 2j: Turnarounds
TTITLE4=05: Exs. 3a - 3b: Bottleneck Techniques
TTITLE5=06: Exs. 3c - 3e: Bottleneck Techniques
TTITLE6=07: Exs. 3f - 3g: Bottleneck Techniques
TTITLE7=08: Ex: 3h: Bottleneck Techniques
TTITLE8=09: Exs. 3i - 3k
TTITLE9=10: Exs. 4a - 4g
TTITLE10=11: Exs. 5a - 5e
TTITLE11=12: Exs. 5f - 5h
TTITLE12=13: Exs. 5i - 5j
TTITLE13=14: Exs. 6a - 6e
TTITLE14=15: Ex. 6f
TTITLE15=16: Ex. 7a
TTITLE16=17: Ex. 7b
TTITLE17=18: Ex. 7c
TTITLE18=19: Exs. 7d - 7i
TTITLE19=20: Exs. 7j - 7k
TTITLE20=21: Exs. 7l - 7m
TTITLE21=22: Ex. 7n
TTITLE22=23: Exs. 7o - 7q
TTITLE23=24: Intro To Terraplane Blues
TTITLE24=25: Terraplane Blues
TTITLE25=26: Ex. 10j
TTITLE26=27: Exs. 11a - 11d
TTITLE27=28: Ex. 11e: Moon Goin' Down
TTITLE28=29: Exs. 11f - 11j: Analysis
TTITLE29=30: Ex. 11k
TTITLE30=31: Exs. 11l - 11o
TTITLE31=32: Exs. 12a - 12c
TTITLE32=33: Exs. 12d - 12g: Palm Harmonics
TTITLE33=34: Rhythm In The Blues
EXTD=\nYEAR: 1996  ID3G:   0
EXTT0=
EXTT1=
EXTT2=
EXTT3=
EXTT4=
EXTT5=
EXTT6=
EXTT7=
EXTT8=
EXTT9=
EXTT10=
EXTT11=
EXTT12=
EXTT13=
EXTT14=
EXTT15=
EXTT16=
EXTT17=
EXTT18=
EXTT19=
EXTT20=
EXTT21=
EXTT22=
EXTT23=
EXTT24=
EXTT25=
EXTT26=
EXTT27=
EXTT28=
EXTT29=
EXTT30=
EXTT31=
EXTT32=
EXTT33=
PLAYORDER=
